<?xml version="1.0" encoding="UTF-8"?>
<svg width="22px" height="20px" viewBox="0 0 22 20" version="1.1" xmlns="http://www.w3.org/2000/svg" xmlns:xlink="http://www.w3.org/1999/xlink">
    <!-- Generator: Sketch 41.2 (35397) - http://www.bohemiancoding.com/sketch -->
    <title>shopping-cart</title>
    <desc>Created with Sketch.</desc>
    <defs>
        <polygon id="path-1" points="10.4961483 1.53934708 11.304863 3.95704467 7.80759269 3.95704467 7.31289048 2.57"></polygon>
        <mask id="mask-2" maskContentUnits="userSpaceOnUse" maskUnits="objectBoundingBox" x="-1" y="-1" width="5.99197252" height="4.41769759">
            <rect x="6.31289048" y="0.539347079" width="5.99197252" height="4.41769759" fill="white"></rect>
            <use xlink:href="#path-1" fill="black"></use>
        </mask>
        <polygon id="path-3" points="16.1012817 1.53934708 16.9099964 3.95704467 13.4127261 3.95704467 12.9180239 2.57"></polygon>
        <mask id="mask-4" maskContentUnits="userSpaceOnUse" maskUnits="objectBoundingBox" x="-1" y="-1" width="5.99197252" height="4.41769759">
            <rect x="11.9180239" y="0.539347079" width="5.99197252" height="4.41769759" fill="white"></rect>
            <use xlink:href="#path-3" fill="black"></use>
        </mask>
    </defs>
    <g id="Page-1-Copy-2" stroke="none" stroke-width="1" fill="none" fill-rule="evenodd">
        <g id="ADE-Shopping-Cart-Popover" transform="translate(-1123.000000, -27.000000)">
            <g id="Group-5" transform="translate(1123.000000, 27.000000)">
                <g id="shopping-cart">
                    <g id="Capa_1">
                        <g id="Group">
                            <path d="M6.45684325,11.8370447 L18.8801649,11.8370447 L21.0783213,4.00426117 L17.843428,4.00426117 L16.6819742,0.422817869 L11.8382918,1.99024055 L12.5007405,4.00426117 L12.2727526,4.00426117 L11.0768752,0.422817869 L6.2331584,1.99024055 L6.89560705,4.00426117 L4.30598501,4.00426117 L3.76828767,1.8571134 C3.4972703,0.783539519 2.55950134,0.0234707904 1.47976926,0.0234707904 L0,0.0234707904 L0,0.920962199 L1.47976926,0.920962199 C2.15082382,0.920962199 2.73585368,1.36756014 2.9165434,2.04178694 L5.29538944,11.3346048 C4.80499018,11.6867354 4.48237178,12.2621649 4.48237178,12.9192096 C4.48237178,13.9927835 5.38141413,14.8902749 6.45684325,14.8902749 L18.5661524,14.8902749 L18.5661524,13.9927835 L6.45684325,13.9927835 C5.87181339,13.9927835 5.38141413,13.4989347 5.38141413,12.9192096 C5.38144856,12.3308935 5.87611635,11.8370447 6.45684325,11.8370447 L6.45684325,11.8370447 Z M16.1012817,1.53934708 L16.9099964,3.95704467 L13.4127261,3.95704467 L12.9180239,2.57 L16.1012817,1.53934708 Z M10.4961483,1.53934708 L11.304863,3.95704467 L7.80759269,3.95704467 L7.31289048,2.57 L10.4961483,1.53934708 Z M19.9125989,4.85453608 L18.2091104,10.9438488 L6.0998012,10.9438488 L4.52966986,4.85457045 L19.9125989,4.85453608 L19.9125989,4.85453608 Z" id="Shape" fill="#FFFFFF"></path>
                            <use id="Path" stroke="#E2E22E" mask="url(#mask-2)" stroke-width="2" xlink:href="#path-1"></use>
                            <use id="Path" stroke="#E2E22E" mask="url(#mask-4)" stroke-width="2" xlink:href="#path-3"></use>
                            <path d="M14.621478,16.2258076 C13.5890784,16.2258076 12.7373342,17.0760825 12.7373342,18.106701 C12.7373342,19.1373196 13.5890784,19.9875945 14.621478,19.9875945 C15.6969071,19.9875945 16.5056218,19.1373196 16.5056218,18.106701 C16.5056563,17.0760825 15.653912,16.2258076 14.621478,16.2258076 Z M14.621478,19.1373196 C14.0364481,19.1373196 13.5890784,18.6434708 13.5890784,18.106701 C13.5890784,17.5226804 14.0837807,17.0760825 14.621478,17.0760825 C15.2065079,17.0760825 15.6538776,17.5226804 15.6538776,18.106701 C15.653912,18.6907216 15.1592098,19.1373196 14.621478,19.1373196 Z" id="Shape" fill="#FFFFFF"></path>
                            <path d="M7.71296209,16.2258076 C6.68056253,16.2258076 5.82881826,17.0760825 5.82881826,18.106701 C5.82881826,19.1373196 6.68056253,19.9875945 7.71296209,19.9875945 C8.74536166,19.9875945 9.59710593,19.1373196 9.59710593,18.106701 C9.59710593,17.0760825 8.74536166,16.2258076 7.71296209,16.2258076 Z M7.71296209,19.1373196 C7.12793223,19.1373196 6.68056253,18.6434708 6.68056253,18.106701 C6.68056253,17.5226804 7.17526474,17.0760825 7.71296209,17.0760825 C8.25065944,17.0760825 8.74536166,17.5226804 8.74536166,18.106701 C8.74536166,18.6907216 8.25065944,19.1373196 7.71296209,19.1373196 Z" id="Shape" fill="#FFFFFF"></path>
                        </g>
                    </g>
                </g>
            </g>
        </g>
    </g>
</svg>