<?xml version="1.0" encoding="UTF-8"?>
<svg width="21px" height="20px" viewBox="0 0 21 20" version="1.1" xmlns="http://www.w3.org/2000/svg" xmlns:xlink="http://www.w3.org/1999/xlink">
    <!-- Generator: Sketch 41.2 (35397) - http://www.bohemiancoding.com/sketch -->
    <title>shopping-cart</title>
    <desc>Created with Sketch.</desc>
    <defs></defs>
    <g id="Page-1-Copy-2" stroke="none" stroke-width="1" fill="none" fill-rule="evenodd">
        <g id="ADE-2" transform="translate(-1123.000000, -27.000000)" fill="#999999">
            <g id="Group-5" transform="translate(1123.000000, 27.000000)">
                <g id="shopping-cart">
                    <g id="Capa_1">
                        <g id="Group">
                            <path d="M18.5851624,11.8370447 L20.7489725,4.00426117 L4.238704,4.00426117 L3.70940817,1.8571134 C3.44262545,0.783539519 2.51950913,0.0234707904 1.45664787,0.0234707904 L0,0.0234707904 L0,0.920962199 L1.45664787,0.920962199 C2.1172172,0.920962199 2.69310597,1.36756014 2.87097241,2.04178694 L5.21264898,11.3346048 C4.72991221,11.6867354 4.41233472,12.2621649 4.41233472,12.9192096 C4.41233472,13.9927835 5.29732954,14.8902749 6.35595508,14.8902749 L18.2760563,14.8902749 L18.2760563,13.9927835 L6.35595508,13.9927835 C5.78006631,13.9927835 5.29732954,13.4989347 5.29732954,12.9192096 C5.29736342,12.3308935 5.78430203,11.8370447 6.35595508,11.8370447 L18.5851624,11.8370447 Z M19.6014646,4.85453608 L17.924593,10.9438488 L6.00449181,10.9438488 L4.45889377,4.85457045 L19.6014646,4.85453608 L19.6014646,4.85453608 Z" id="Shape"></path>
                            <path d="M14.3930174,16.2258076 C13.3767491,16.2258076 12.5383133,17.0760825 12.5383133,18.106701 C12.5383133,19.1373196 13.3767491,19.9875945 14.3930174,19.9875945 C15.451643,19.9875945 16.2477215,19.1373196 16.2477215,18.106701 C16.2477554,17.0760825 15.4093196,16.2258076 14.3930174,16.2258076 Z M14.3930174,19.1373196 C13.8171286,19.1373196 13.3767491,18.6434708 13.3767491,18.106701 C13.3767491,17.5226804 13.8637216,17.0760825 14.3930174,17.0760825 C14.9689062,17.0760825 15.4092857,17.5226804 15.4092857,18.106701 C15.4093196,18.6907216 14.9223471,19.1373196 14.3930174,19.1373196 Z" id="Shape"></path>
                            <path d="M7.59244706,16.2258076 C6.57617874,16.2258076 5.73774297,17.0760825 5.73774297,18.106701 C5.73774297,19.1373196 6.57617874,19.9875945 7.59244706,19.9875945 C8.60871538,19.9875945 9.44715115,19.1373196 9.44715115,18.106701 C9.44715115,17.0760825 8.60871538,16.2258076 7.59244706,16.2258076 Z M7.59244706,19.1373196 C7.01655829,19.1373196 6.57617874,18.6434708 6.57617874,18.106701 C6.57617874,17.5226804 7.06315123,17.0760825 7.59244706,17.0760825 C8.12174289,17.0760825 8.60871538,17.5226804 8.60871538,18.106701 C8.60871538,18.6907216 8.12174289,19.1373196 7.59244706,19.1373196 Z" id="Shape"></path>
                        </g>
                    </g>
                </g>
            </g>
        </g>
    </g>
</svg>